{"title":"BOLLYWOOD.DIARIES (2016) 720p DvDRip x264 AC3 5.1 Esubs -DDR","uid":15802309,"size":2592120137,"categoryP":"video","categoryS":"hd___movies","magnet":"?xt=urn:btih:c8eae833f74a38c8e95e95ed46bebdd5f6f6ff8d&amp;dn=BOLLYWOOD.DIARIES+%282016%29+720p+DvDRip+x264+AC3+5.1+Esubs+-DDR&amp;tr=udp%3A%2F%2Ftracker.leechers-paradise.org%3A6969&amp;tr=udp%3A%2F%2Fzer0day.ch%3A1337&amp;tr=udp%3A%2F%2Fopen.demonii.com%3A1337&amp;tr=udp%3A%2F%2Ftracker.coppersurfer.tk%3A6969&amp;tr=udp%3A%2F%2Fexodus.desync.com%3A6969","seeders":48,"leechers":34,"uploader":"SaM","files":3,"time":1473521706,"description":"\n** BOLLYWOOD.DIARIES **\r\n\r\n** 2016**\r\n\r\n** 720p / DVDrip / x264\r\n\r\nHindi Untouched AC3 5.1 **\r\n\r\n** English Subtitle(s) **\r\n\r\n\r\n\r\n[ SCREENS ]\r\n \nhttp://extraimago.com/image/wiZN \nhttp://extraimago.com/image/wiZ2 \nhttp://extraimago.com/image/wiZw \nhttp://extraimago.com/image/wiZa \nhttp://extraimago.com/image/wiZ8 \nhttp://extraimago.com/image/wiKf \nhttp://extraimago.com/image/wiKW \nhttp://extraimago.com/image/wiKA \nhttp://extraimago.com/image/wiKv \nhttp://extraimago.com/image/wiKu \nhttp://extraimago.com/image/wiKV \nhttp://extraimago.com/image/wiK6 \nhttp://extraimago.com/image/wiKx \nhttp://extraimago.com/image/wiKt \nhttp://extraimago.com/image/wiKo\r\n\r\n\r\n[ Info ]\r\n\r\nSource : DVD9 @ DDR\r\nGeneral\r\nFormat : Matroska\r\nFile size : 2.39 GiB\r\nDuration : 1 h 56 min\r\nOverall bit rate : 2 948 kb/s\r\n\r\n\r\nVideo\r\nID : 1\r\nFormat : AVC\r\nFormat/Info : Advanced Video Codec\r\nFormat profile :   \r\nFormat settings, CABAC : Yes\r\nFormat settings, ReFrames : 12 frames\r\nCodec ID : V_MPEG4/ISO/AVC\r\nDuration : 1 h 56 min\r\nBit rate : 2 500 kb/s\r\nWidth : 1 280 pixels\r\nHeight : 544 pixels\r\nDisplay aspect ratio : 2.35:1\r\nFrame rate mode : Constant\r\nFrame rate : 24.975 (25000/1001) FPS\r\nColor space : YUV\r\nChroma subsampling : 4:2:0\r\nBit depth : 8 bits\r\nScan type : Progressive\r\nBits/(Pixel*Frame) : 0.144\r\nStream size : 2.03 GiB (85%)\r\nDefault : Yes\r\nForced : No\r\nColor range : Limited\r\nColor primaries : BT.709\r\nTransfer characteristics : BT.709\r\nMatrix coefficients : BT.709\r\n\r\nAudio\r\nID : 2\r\nFormat : AC-3\r\nFormat/Info : Audio Coding 3\r\nMode extension : CM (complete main)\r\nFormat settings, Endianness : Big\r\nCodec ID : A_AC3\r\nDuration : 1 h 56 min\r\nBit rate mode : Constant\r\nBit rate : 448 kb/s\r\nChannel(s) : 6 channels\r\nChannel positions : Front: L C R, Side: L R, LFE\r\nSampling rate : 48.0 kHz\r\nFrame rate : 31.250 FPS (1536 spf)\r\nCompression mode : Lossy\r\nStream size : 372 MiB (15%)\r\nLanguage : Hindi\r\nDefault : Yes\r\nForced : No\r\n\r\nText\r\nID : 3\r\nFormat : UTF-8\r\nCodec ID : S_TEXT/UTF8\r\nCodec ID/Info : UTF-8 Plain Text\r\nDuration : 1 h 47 min\r\nBit rate : 59 b/s\r\nCount of elements : 1360\r\nStream size : 46.9 KiB (0%)\r\nLanguage : English\r\nDefault : Yes\r\nForced : No\r\n\r\n\r\nChapters : YES","torrent":{"xt":"urn:btih:c8eae833f74a38c8e95e95ed46bebdd5f6f6ff8d","amp;dn":"BOLLYWOOD.DIARIES+%282016%29+720p+DvDRip+x264+AC3+5.1+Esubs+-DDR","amp;tr":["udp%3A%2F%2Ftracker.leechers-paradise.org%3A6969","udp%3A%2F%2Fzer0day.ch%3A1337","udp%3A%2F%2Fopen.demonii.com%3A1337","udp%3A%2F%2Ftracker.coppersurfer.tk%3A6969","udp%3A%2F%2Fexodus.desync.com%3A6969"],"infoHash":"c8eae833f74a38c8e95e95ed46bebdd5f6f6ff8d","infoHashBuffer":{"type":"Buffer","data":[200,234,232,51,247,74,56,200,233,94,149,237,70,190,189,213,246,246,255,141]},"announce":[],"urlList":[]}}